<svg width="36" height="36" viewBox="0 0 36 36" fill="none" xmlns="http://www.w3.org/2000/svg">
<g id="logo 1" clip-path="url(#clip0_5_11)">
<path id="Vector" fill-rule="evenodd" clip-rule="evenodd" d="M18 3.27246C9.86572 3.27246 3.27246 9.86572 3.27246 18C3.27246 26.1343 9.86572 32.7275 18 32.7275C26.1343 32.7275 32.7275 26.1343 32.7275 18C32.7275 9.86572 26.1343 3.27246 18 3.27246ZM0 18C0 8.05957 8.05957 0 18 0C27.9404 0 36 8.05957 36 18C36 27.9404 27.9404 36 18 36C8.05957 36 0 27.9404 0 18Z" fill="#006661"/>
<path id="Vector_2" fill-rule="evenodd" clip-rule="evenodd" d="M12.5449 12.9683L2.73633 14.9297L2.09473 11.7202L11.9033 9.75879C15.9287 8.95312 20.0728 8.95312 24.0981 9.75879L33.9053 11.7202L33.2637 14.9297L23.4565 12.9683C19.8545 12.2476 16.1455 12.2476 12.5449 12.9683Z" fill="#006661" stroke="#006661"/>
<path id="Vector_3" fill-rule="evenodd" clip-rule="evenodd" d="M4.36084 24.312H2.41553V21.0396H4.36084C9.47461 21.0396 13.9702 24.4292 15.375 29.3467L16.4575 33.1348L13.311 34.0342L12.2285 30.2461C11.2251 26.7334 8.01416 24.312 4.36084 24.312ZM23.773 30.2461L22.6904 34.0342L19.5439 33.1348L20.6265 29.3467C22.0313 24.4292 26.5254 21.0396 31.6406 21.0396H33.5845V24.312H31.6406C27.9873 24.312 24.7764 26.7334 23.773 30.2461Z" fill="#006661"/>
<path id="Vector_4" fill-rule="evenodd" clip-rule="evenodd" d="M18.0015 17.2983C17.1826 17.2983 16.5205 17.9619 16.5205 18.7793C16.5205 19.5967 17.1826 20.2603 18.0015 20.2603C18.8188 20.2603 19.481 19.5967 19.481 18.7793C19.481 17.9619 18.8188 17.2983 18.0015 17.2983ZM13.248 18.7793C13.248 16.1543 15.375 14.0259 18.0015 14.0259C20.6265 14.0259 22.7534 16.1543 22.7534 18.7793C22.7534 21.4043 20.6265 23.5327 18.0015 23.5327C15.375 23.5327 13.248 21.4043 13.248 18.7793Z" fill="#006661"/>
</g>
<defs>
<clipPath id="clip0_5_11">
<rect width="36" height="36" fill="white"/>
</clipPath>
</defs>
</svg>
