<svg width="143" height="75" viewBox="0 0 143 75" fill="none" xmlns="http://www.w3.org/2000/svg">
<path fill-rule="evenodd" clip-rule="evenodd" d="M0.158756 68.0719H4.86956V49.5075L12.2265 65.6933C13.0599 67.6389 14.2571 68.3596 16.5751 68.3596C18.8931 68.3596 20.0189 67.6381 20.8798 65.6933L28.2002 49.5075V68.0719H32.9476V49.5075C32.9476 47.7058 32.2223 46.8389 30.7002 46.3703C27.1127 45.2892 24.7207 46.2264 23.634 48.6406L16.4232 64.6462L9.46503 48.6406C8.41403 46.2264 5.98553 45.2892 2.36228 46.3703C0.875936 46.8389 0.151447 47.705 0.151447 49.5075L0.150635 68.0719H0.158756ZM36.8689 52.968H41.6163V63.1701C41.5805 63.7461 41.7974 65.0445 44.3778 65.0793C45.7179 65.1156 54.597 65.0793 54.6684 65.0793V52.8953H59.4158V69.586C59.4158 73.6953 54.2989 74.5954 51.9142 74.6325H36.9859V71.4977H51.9524C54.9966 71.1729 54.6343 69.6596 54.6343 69.1546V67.9281H44.5954C39.9204 67.8918 36.912 65.8371 36.877 63.4941V52.9664L36.8689 52.968ZM138.699 41.1436C135.801 41.0709 133.552 41.3601 131.668 42.1535C131.126 42.3717 130.255 42.3717 130.183 43.0552C130.473 43.342 130.508 43.8115 130.763 44.209C131.197 44.9305 131.959 45.9025 132.647 46.4066C133.409 46.9843 134.17 47.5604 134.966 48.0654C136.379 48.9299 137.973 49.4348 139.35 50.3002C140.148 50.8051 140.944 51.4539 141.742 51.9952C142.148 52.2837 142.394 52.7531 142.902 52.9325V52.8234C142.648 52.5002 142.575 52.0316 142.323 51.6696C141.96 51.3101 141.597 50.9845 141.234 50.625C140.184 49.2191 138.879 47.9926 137.466 46.9843C136.306 46.1909 133.77 45.1098 133.299 43.7767L133.228 43.704C134.024 43.6313 134.966 43.3428 135.728 43.1263C136.96 42.8031 138.083 42.8742 139.35 42.5502C139.931 42.4048 140.51 42.2255 141.091 42.0453V41.7221C140.438 41.0733 139.967 40.208 139.279 39.5956C137.432 38.0095 135.401 36.4591 133.299 35.1615C132.176 34.4408 130.726 33.9714 129.53 33.3598C129.094 33.1432 128.371 33.035 128.117 32.6746C127.463 31.8828 127.102 30.8365 126.631 29.8985C125.581 27.9158 124.565 25.7173 123.66 23.6263C123.008 22.2205 122.608 20.8146 121.812 19.5171C118.079 13.3887 114.02 9.67618 107.787 6.03472C106.447 5.27767 104.852 4.95207 103.157 4.55617L100.44 4.41074C99.8588 4.15865 99.2797 3.47351 98.7721 3.14871C96.7067 1.85114 91.3794 -0.96055 89.8565 2.75281C88.8778 5.09588 91.3063 7.40259 92.1307 8.59271C92.748 9.42167 93.5439 10.3589 93.9801 11.2961C94.2237 11.9086 94.305 12.5582 94.5592 13.2069C95.1383 14.793 95.6825 16.56 96.4435 18.0385C96.8496 18.7956 97.276 19.5898 97.7837 20.2741C98.0736 20.67 98.5812 20.851 98.6893 21.4998C98.1816 22.2213 98.1467 23.3015 97.8567 24.204C96.5515 28.2777 97.0592 33.3242 98.9069 36.3153C99.4877 37.2161 100.856 39.1997 102.713 38.4418C104.344 37.793 103.98 35.7384 104.451 33.9358C104.561 33.5036 104.488 33.2151 104.704 32.9259V32.9986L106.191 35.9905C107.314 37.7567 109.272 39.5956 110.902 40.822C111.771 41.4708 112.459 42.589 113.546 42.9849V42.8759H113.475C113.257 42.5527 112.93 42.4072 112.641 42.1552C111.988 41.5064 111.264 40.713 110.756 39.9923C109.235 37.974 107.895 35.7384 106.698 33.4317C106.118 32.3143 105.61 31.0886 105.141 29.9712C104.921 29.5381 104.921 28.8885 104.56 28.6736C104.016 29.4654 103.22 30.1522 102.819 31.125C102.131 32.6746 102.059 34.5854 101.806 36.5681C101.66 36.6045 101.724 36.5682 101.66 36.6409C100.501 36.3532 100.102 35.1623 99.6672 34.154C98.5804 31.5944 98.3985 27.4851 99.3406 24.5288C99.5941 23.7718 100.682 21.3923 100.248 20.6716C100.029 19.9865 99.3057 19.5906 98.9061 19.0493C98.435 18.3641 97.929 17.4996 97.6025 16.7425C96.7335 14.7227 96.2989 12.4887 95.356 10.4696C94.9198 9.53236 94.1596 8.55878 93.5431 7.69426C92.8544 6.72068 92.0949 6.03553 91.5508 4.88258C91.3696 4.48668 91.1162 3.83709 91.4062 3.40402C91.4777 3.11558 91.6239 3.00813 91.9122 2.93541C92.3833 2.53951 93.725 3.04367 94.1961 3.25859C95.5363 3.79992 96.6595 4.30409 97.7828 5.06033C98.2905 5.42068 98.8346 6.10582 99.4868 6.28681H100.249C101.409 6.53889 102.712 6.35952 103.798 6.68271C105.719 7.29675 107.458 8.19681 109.017 9.17121C113.764 12.1631 117.679 16.4169 120.323 21.5006C120.758 22.3296 120.939 23.0866 121.338 23.9519C122.1 25.7189 123.042 27.5207 123.802 29.2521C124.564 30.9464 125.288 32.6779 126.375 34.0837C126.919 34.8407 129.093 35.2366 130.071 35.6334C130.796 35.9565 131.918 36.2474 132.572 36.6433C133.803 37.4003 135.036 38.2657 136.195 39.0946C136.774 39.5261 138.587 40.4278 138.695 41.1468L138.699 41.1436ZM101.743 9.81757C101.242 9.81316 100.743 9.87373 100.258 9.99775V10.0705H100.33C100.62 10.6473 101.128 11.044 101.49 11.549L102.324 13.2797L102.395 13.2069C102.903 12.8466 103.157 12.2697 103.157 11.4052C102.94 11.1531 102.904 10.9002 102.723 10.6481C102.505 10.2878 102.034 10.1068 101.743 9.81919V9.81757Z" fill="#00678C"/>
<path fill-rule="evenodd" clip-rule="evenodd" d="M63.0334 68.0719H76.659C78.2534 68.0719 79.7763 67.7487 81.0076 67.171C83.073 66.2338 84.0517 64.9734 84.0517 63.3146V59.8542C84.0517 58.521 82.9285 57.2582 80.6827 56.3937C79.5229 55.9614 78.0731 55.7086 76.6599 55.7086H70.9338C69.0129 55.7086 68.1073 55.1309 67.8531 53.8705C67.8173 53.7266 67.8173 53.582 67.8173 53.4382V51.3109C67.8173 51.2018 67.8173 51.0588 67.8531 50.915C68.1065 49.9414 68.6141 49.6885 70.2897 49.5091H84.241V46.3718H70.9776C69.0568 46.3718 68.0423 46.4809 67.1359 46.7693C64.3452 47.6338 63.113 49.0041 63.113 51.4183V54.1597C63.113 56.2846 65.505 58.0888 69.5636 58.521C69.9981 58.5574 70.4692 58.5574 70.9403 58.5574H75.833C76.0141 58.5574 76.1945 58.5574 76.339 58.5938C77.8254 58.7376 78.4776 58.9897 78.9121 59.5294C79.2021 59.8178 79.2752 60.0707 79.2752 60.3955V63.1345C79.2752 63.4576 79.0575 63.8923 78.623 64.2519C78.1884 64.6114 77.498 64.8643 76.5924 64.9007C76.4113 64.9007 76.3041 64.937 76.1214 64.937H63.0334V68.0719ZM113.549 62.6295C113.549 65.8371 115.985 67.6388 120.834 68.0008C121.305 68.0371 121.74 68.0719 122.211 68.0719H134.532V64.937H122.103C119.347 64.937 118.297 64.2519 118.297 62.5939V46.3718H113.54V62.6303L113.549 62.6295ZM87.0585 62.7725V51.5985C87.0585 48.7504 89.0874 47.019 93.0388 46.4793C93.4734 46.4429 93.9079 46.4066 94.3059 46.4066H103.292C103.763 46.4066 104.163 46.4429 104.634 46.4793C108.584 47.019 110.576 48.7496 110.576 51.5985V62.7725C110.576 65.0792 109.743 66.3057 107.785 67.1355L112.423 71.3158H106.952L103.183 67.9281L99.3773 68.1446H94.3042C93.3747 68.14 92.4493 68.0192 91.55 67.7851C88.5449 66.9545 87.0585 65.3693 87.0585 62.7725ZM92.1673 62.522C92.1673 62.6659 92.2485 62.8089 92.277 62.9907C92.5304 64.2874 93.7617 65.0089 95.646 65.0089H99.9231L96.0099 61.4757H101.481L104.923 64.5767C105.577 64.2155 105.975 63.7105 106.119 63.0617C106.156 62.9179 106.156 62.7386 106.156 62.5931V51.8861C106.156 51.7423 106.156 51.5993 106.119 51.4539C105.866 50.229 104.635 49.5447 102.786 49.5447H95.6468C93.5448 49.5447 92.1681 50.4455 92.1681 51.8861L92.1673 62.522Z" fill="#CE8B2C"/>
</svg>
