<svg width="226" height="70" viewBox="0 0 226 70" fill="none" xmlns="http://www.w3.org/2000/svg">
<g clip-path="url(#clip0_227_663)">
<path fill-rule="evenodd" clip-rule="evenodd" d="M0.525196 47.5183C-0.165241 46.4315 -0.175672 45.0473 0.498307 43.95L25.8749 2.64267C27.2863 0.345175 30.6945 0.546063 31.8251 2.99337L55.0078 53.1765C55.8679 55.0385 54.8778 57.2293 52.9096 57.8185L16.8472 68.6145C15.3963 69.0488 13.8329 68.4668 13.0219 67.19L0.525196 47.5183ZM28.8028 14.7206C29.0473 13.5054 30.7158 13.3302 31.2086 14.4679L47.1997 51.3928C47.5005 52.088 47.126 52.8898 46.3987 53.1063L21.4824 60.5285C20.5666 60.8013 19.6893 60.0028 19.8775 59.0675L28.8028 14.7206ZM121.492 52.8428H128.577V26.93H121.492V52.8428ZM121.191 20.2319C121.191 17.9305 122.477 16.779 125.047 16.779C127.617 16.779 128.903 17.9305 128.903 20.2319C128.903 21.3294 128.581 22.183 127.939 22.7936C127.296 23.4041 126.332 23.7086 125.047 23.7086C122.477 23.7086 121.191 22.5497 121.191 20.2319ZM218.386 40.8375L215.645 40.93C213.586 40.9923 212.053 41.3638 211.046 42.043C210.039 42.7233 209.537 43.7578 209.537 45.149C209.537 47.1418 210.682 48.1388 212.974 48.1388C214.615 48.1388 215.928 47.668 216.91 46.7245C217.894 45.7825 218.386 44.531 218.386 42.9695V40.8375ZM220.476 52.8438L219.106 49.3205H218.92C217.727 50.8198 216.5 51.8593 215.238 52.4388C213.977 53.018 212.332 53.307 210.303 53.307C207.809 53.307 205.848 52.5965 204.415 51.175C202.983 49.7543 202.267 47.7295 202.267 45.1023C202.267 42.3525 203.23 40.3245 205.158 39.0183C207.087 37.7128 209.993 36.9903 213.88 36.851L218.386 36.712V35.576C218.386 32.9498 217.038 31.636 214.344 31.636C212.269 31.636 209.83 32.2613 207.028 33.5135L204.682 28.7388C207.671 27.179 210.985 26.3975 214.623 26.3975C218.107 26.3975 220.778 27.1553 222.637 28.6693C224.494 30.1835 225.424 32.4865 225.424 35.576V52.8438H220.476ZM181.582 52.8438H174.498V37.7085C174.498 35.8393 174.183 34.4375 173.558 33.502C172.93 32.5673 171.943 32.0993 170.595 32.0993C168.784 32.0993 167.468 32.7645 166.647 34.0928C165.826 35.422 165.416 37.6088 165.416 40.6525V52.8438H158.332V26.9308H163.744L164.696 30.2455H165.091C165.788 29.0563 166.795 28.125 168.11 27.453C169.427 26.7803 170.937 26.444 172.64 26.444C176.527 26.444 179.158 27.7115 180.537 30.2455H181.164C181.861 29.04 182.887 28.1053 184.242 27.4408C185.597 26.7763 187.125 26.444 188.829 26.444C191.771 26.444 193.997 27.1978 195.506 28.7043C197.016 30.211 197.771 32.6255 197.771 35.9465V52.8438H190.663V37.7085C190.663 35.8393 190.349 34.4375 189.724 33.502C189.095 32.5673 188.109 32.0993 186.761 32.0993C185.027 32.0993 183.731 32.718 182.87 33.9538C182.012 35.1903 181.582 37.152 181.582 39.8405V52.8438ZM150.742 51.2213C152.593 49.8308 153.518 47.8068 153.518 45.1485C153.518 43.867 153.294 42.7613 152.844 41.834C152.395 40.9068 151.698 40.0883 150.754 39.377C149.81 38.6668 148.323 37.9023 146.294 37.083C144.018 36.1713 142.543 35.483 141.869 35.0198C141.197 34.5565 140.859 34.0083 140.859 33.374C140.859 32.2463 141.905 31.6823 143.995 31.6823C145.171 31.6823 146.325 31.8608 147.455 32.215C148.585 32.571 149.802 33.026 151.102 33.5828L153.239 28.484C150.281 27.1245 147.239 26.4445 144.111 26.4445C140.828 26.4445 138.293 27.0738 136.505 28.3333C134.715 29.5928 133.821 31.3738 133.821 33.6753C133.821 35.0198 134.035 36.1525 134.461 37.0715C134.886 37.9908 135.567 38.8058 136.505 39.5163C137.44 40.2275 138.909 41 140.906 41.834C142.299 42.4215 143.415 42.9355 144.25 43.3758C145.087 43.8163 145.675 44.2108 146.016 44.5578C146.356 44.9055 146.527 45.3573 146.527 45.9138C146.527 47.3968 145.241 48.1383 142.67 48.1383C141.417 48.1383 139.965 47.9295 138.316 47.513C136.666 47.0955 135.184 46.5783 133.868 45.9595V51.8008C135.029 52.295 136.276 52.6698 137.608 52.9253C138.94 53.1798 140.549 53.3073 142.438 53.3073C146.123 53.3073 148.891 52.6118 150.742 51.2213ZM117.734 26.6525C117.099 26.5135 116.302 26.444 115.342 26.444C113.731 26.444 112.241 26.8883 110.871 27.777C109.5 28.666 108.412 29.8363 107.607 31.288H107.259L106.214 26.9308H100.848V52.8438H107.933V39.6555C107.933 37.5695 108.563 35.9465 109.825 34.7878C111.088 33.6288 112.849 33.0493 115.11 33.0493C115.931 33.0493 116.627 33.127 117.2 33.281L117.734 26.6525ZM79.9973 34.9035H82.3665C84.5809 34.9035 86.2369 34.4673 87.3367 33.594C88.4365 32.7215 88.9859 31.4498 88.9859 29.781C88.9859 28.0975 88.525 26.8535 87.604 26.0498C86.6821 25.246 85.2388 24.8442 83.2719 24.8442H79.9973V34.9035ZM96.2557 29.5265C96.2557 33.1735 95.1141 35.9625 92.8293 37.8933C90.546 39.8255 87.2981 40.7905 83.0868 40.7905H79.9973V52.8433H72.7972V18.9574H83.6437C87.7631 18.9574 90.8944 19.8421 93.0392 21.6115C95.184 23.381 96.2557 26.0198 96.2557 29.5265Z" fill="#2D3748"/>
</g>
<defs>
<clipPath id="clip0_227_663">
<rect width="225.474" height="70" fill="white"/>
</clipPath>
</defs>
</svg>
