<svg width="768" height="1080" viewBox="0 0 768 1080" fill="none" xmlns="http://www.w3.org/2000/svg">
<path d="M768 0H0V1080H768V0Z" fill="#02223C"/>
<path d="M469.8 1080C474.9 1042.9 479.9 1005.8 492.5 965.9C505.1 925.9 525.2 883.1 560.1 872.1C595 861.1 644.8 881.9 681.9 872.1C719 862.4 743.5 822.1 768 781.8V1080H469.8Z" fill="#B6D4EC"/>
<path d="M298.2 0C293.4 37.5 288.7 75 275.5 114.1C262.3 153.2 240.7 193.8 206.5 206.5C172.2 219.1 125.3 203.7 88.8 214.3C52.3 225 26.1 261.6 0 298.2V0H298.2Z" fill="#B6D4EC"/>
<path fill-rule="evenodd" clip-rule="evenodd" d="M384 206.818C374.51 206.818 366.818 214.51 366.818 224C366.818 233.49 374.51 241.182 384 241.182C393.49 241.182 401.182 233.49 401.182 224C401.182 214.51 393.49 206.818 384 206.818ZM363 224C363 212.403 372.403 203 384 203C395.597 203 405 212.403 405 224C405 235.597 395.597 245 384 245C372.403 245 363 235.597 363 224Z" fill="#B6D4EC"/>
<path fill-rule="evenodd" clip-rule="evenodd" d="M377.636 218.13L366.192 220.418L365.444 216.674L376.887 214.385C381.583 213.445 386.418 213.445 391.115 214.385L402.556 216.674L401.808 220.418L390.366 218.13C386.164 217.289 381.836 217.289 377.636 218.13Z" fill="#B6D4EC"/>
<path fill-rule="evenodd" clip-rule="evenodd" d="M368.088 231.364H365.818V227.546H368.088C374.054 227.546 379.299 231.501 380.938 237.238L382.2 241.657L378.53 242.707L377.267 238.287C376.096 234.189 372.35 231.364 368.088 231.364ZM390.735 238.287L389.472 242.707L385.801 241.657L387.064 237.238C388.703 231.501 393.946 227.546 399.914 227.546H402.182V231.364H399.914C395.652 231.364 391.906 234.189 390.735 238.287Z" fill="#B6D4EC"/>
<path fill-rule="evenodd" clip-rule="evenodd" d="M384.002 223.181C383.046 223.181 382.274 223.956 382.274 224.909C382.274 225.863 383.046 226.637 384.002 226.637C384.955 226.637 385.728 225.863 385.728 224.909C385.728 223.956 384.955 223.181 384.002 223.181ZM378.456 224.909C378.456 221.847 380.938 219.364 384.002 219.364C387.064 219.364 389.546 221.847 389.546 224.909C389.546 227.972 387.064 230.455 384.002 230.455C380.938 230.455 378.456 227.972 378.456 224.909Z" fill="#B6D4EC"/>
<path d="M242.797 272.018C245.518 272.018 247.767 272.346 249.544 273.002C251.335 273.658 252.675 274.649 253.563 275.976C254.452 277.288 254.896 278.942 254.896 280.938C254.896 282.224 254.664 283.372 254.199 284.384C253.734 285.396 253.099 286.277 252.292 287.029C251.485 287.781 250.576 288.417 249.564 288.937L258.342 302H250.221L243.453 290.782H240.746V302H233.507V272.018H242.797ZM242.51 277.678H240.746V285.163H242.53C244.198 285.163 245.456 284.849 246.304 284.22C247.165 283.591 247.596 282.586 247.596 281.205C247.596 280.002 247.186 279.113 246.365 278.539C245.545 277.965 244.26 277.678 242.51 277.678Z" fill="#B6D4EC"/>
<path d="M271.077 278.498C273.265 278.498 275.151 278.901 276.737 279.708C278.323 280.501 279.547 281.677 280.408 283.235C281.27 284.794 281.7 286.722 281.7 289.019V292.32H267.14C267.208 293.811 267.7 295 268.616 295.889C269.532 296.777 270.845 297.222 272.554 297.222C274.003 297.222 275.336 297.078 276.553 296.791C277.77 296.49 279.021 296.039 280.306 295.438V300.749C279.171 301.323 277.961 301.74 276.676 302C275.404 302.273 273.818 302.41 271.918 302.41C269.607 302.41 267.543 301.993 265.725 301.159C263.92 300.312 262.498 299.02 261.459 297.283C260.434 295.533 259.921 293.312 259.921 290.618C259.921 287.884 260.386 285.621 261.315 283.83C262.259 282.039 263.564 280.706 265.232 279.831C266.914 278.942 268.862 278.498 271.077 278.498ZM271.241 283.44C270.161 283.44 269.259 283.789 268.534 284.486C267.823 285.17 267.413 286.243 267.304 287.706H275.138C275.124 286.899 274.967 286.175 274.666 285.532C274.379 284.89 273.948 284.384 273.374 284.015C272.813 283.632 272.103 283.44 271.241 283.44Z" fill="#B6D4EC"/>
<path d="M293.841 312.09C290.587 312.09 288.092 311.536 286.355 310.429C284.619 309.321 283.751 307.749 283.751 305.712C283.751 304.331 284.182 303.183 285.043 302.267C285.904 301.351 287.183 300.694 288.878 300.298C288.208 300.011 287.62 299.546 287.114 298.903C286.608 298.247 286.355 297.584 286.355 296.914C286.355 296.107 286.581 295.424 287.032 294.863C287.483 294.289 288.263 293.674 289.37 293.018C288.167 292.484 287.217 291.65 286.52 290.516C285.822 289.367 285.474 288 285.474 286.414C285.474 284.732 285.85 283.304 286.602 282.128C287.354 280.952 288.447 280.057 289.883 279.441C291.332 278.812 293.096 278.498 295.174 278.498C295.529 278.498 295.994 278.525 296.568 278.58C297.143 278.621 297.696 278.676 298.229 278.744C298.763 278.812 299.152 278.867 299.398 278.908H307.458V282.436L304.074 283.481C304.348 283.933 304.553 284.418 304.689 284.938C304.826 285.457 304.895 286.011 304.895 286.599C304.895 289.073 304.026 291.001 302.29 292.382C300.554 293.763 298.052 294.453 294.784 294.453C293.991 294.426 293.308 294.371 292.733 294.289C292.528 294.494 292.371 294.713 292.262 294.945C292.152 295.164 292.098 295.383 292.098 295.602C292.098 295.916 292.255 296.169 292.569 296.36C292.884 296.552 293.301 296.688 293.82 296.771C294.354 296.853 294.935 296.894 295.563 296.894H299.439C302.01 296.894 303.944 297.44 305.243 298.534C306.556 299.614 307.212 301.228 307.212 303.374C307.212 306.136 306.05 308.275 303.726 309.793C301.401 311.324 298.106 312.09 293.841 312.09ZM294.169 307.537C295.399 307.537 296.527 307.421 297.553 307.188C298.578 306.97 299.398 306.635 300.014 306.184C300.643 305.746 300.957 305.192 300.957 304.522C300.957 303.989 300.772 303.579 300.403 303.292C300.048 303.005 299.542 302.807 298.886 302.697C298.229 302.588 297.464 302.533 296.589 302.533H293.41C292.74 302.533 292.132 302.643 291.585 302.861C291.052 303.08 290.628 303.374 290.313 303.743C289.999 304.126 289.842 304.563 289.842 305.056C289.842 305.821 290.225 306.423 290.99 306.86C291.77 307.312 292.829 307.537 294.169 307.537ZM295.215 290.27C296.186 290.27 296.91 289.941 297.389 289.285C297.867 288.629 298.106 287.699 298.106 286.496C298.106 285.197 297.867 284.227 297.389 283.584C296.91 282.941 296.186 282.62 295.215 282.62C294.217 282.62 293.472 282.941 292.979 283.584C292.487 284.227 292.241 285.19 292.241 286.476C292.241 287.692 292.487 288.629 292.979 289.285C293.472 289.941 294.217 290.27 295.215 290.27Z" fill="#B6D4EC"/>
<path d="M318.286 278.908V302H311.149V278.908H318.286ZM314.738 269.741C315.777 269.741 316.673 269.974 317.425 270.438C318.19 270.89 318.573 271.765 318.573 273.063C318.573 274.335 318.19 275.203 317.425 275.668C316.673 276.133 315.777 276.365 314.738 276.365C313.672 276.365 312.763 276.133 312.011 275.668C311.272 275.203 310.903 274.335 310.903 273.063C310.903 271.765 311.272 270.89 312.011 270.438C312.763 269.974 313.672 269.741 314.738 269.741Z" fill="#B6D4EC"/>
<path d="M341.009 295.027C341.009 296.545 340.66 297.857 339.963 298.965C339.266 300.059 338.192 300.906 336.743 301.508C335.308 302.109 333.462 302.41 331.206 302.41C329.579 302.41 328.15 302.314 326.92 302.123C325.703 301.932 324.466 301.59 323.208 301.098V295.294C324.562 295.909 325.977 296.381 327.453 296.709C328.93 297.037 330.153 297.201 331.124 297.201C332.19 297.201 332.956 297.064 333.421 296.791C333.899 296.504 334.139 296.114 334.139 295.622C334.139 295.267 334.016 294.952 333.77 294.679C333.523 294.405 333.045 294.091 332.334 293.735C331.623 293.38 330.57 292.915 329.176 292.341C327.822 291.767 326.701 291.172 325.812 290.557C324.924 289.928 324.261 289.189 323.823 288.342C323.386 287.48 323.167 286.407 323.167 285.122C323.167 282.921 324.015 281.267 325.71 280.159C327.419 279.052 329.682 278.498 332.498 278.498C333.975 278.498 335.376 278.655 336.702 278.97C338.028 279.271 339.396 279.742 340.804 280.385L338.753 285.225C337.618 284.719 336.504 284.309 335.41 283.994C334.316 283.68 333.339 283.522 332.478 283.522C331.698 283.522 331.104 283.625 330.693 283.83C330.297 284.035 330.099 284.343 330.099 284.753C330.099 285.081 330.215 285.375 330.447 285.635C330.693 285.881 331.158 286.161 331.842 286.476C332.525 286.79 333.523 287.214 334.836 287.747C336.162 288.294 337.283 288.868 338.199 289.47C339.115 290.071 339.812 290.81 340.291 291.685C340.77 292.546 341.009 293.66 341.009 295.027Z" fill="#B6D4EC"/>
<path d="M356.226 296.75C356.923 296.75 357.586 296.682 358.215 296.545C358.844 296.395 359.479 296.21 360.122 295.991V301.241C359.356 301.583 358.481 301.863 357.497 302.082C356.513 302.301 355.344 302.41 353.99 302.41C352.555 302.41 351.276 302.185 350.155 301.733C349.048 301.269 348.18 300.469 347.551 299.334C346.922 298.199 346.607 296.613 346.607 294.576V284.261H343.695V281.308L347.202 279.011L349.15 274.15H353.765V278.908H359.835V284.261H353.765V294.31C353.765 295.13 353.983 295.745 354.421 296.155C354.872 296.552 355.474 296.75 356.226 296.75Z" fill="#B6D4EC"/>
<path d="M377.902 278.498C378.271 278.498 378.682 278.525 379.133 278.58C379.584 278.621 379.933 278.662 380.179 278.703L379.584 285.43C379.352 285.361 379.037 285.307 378.641 285.266C378.244 285.225 377.793 285.204 377.287 285.204C376.631 285.204 375.968 285.279 375.298 285.43C374.642 285.58 374.033 285.847 373.473 286.229C372.912 286.612 372.461 287.146 372.119 287.829C371.791 288.513 371.627 289.388 371.627 290.454V302H364.49V278.908H369.843L370.93 282.702H371.278C371.716 281.923 372.27 281.219 372.939 280.59C373.609 279.947 374.368 279.441 375.216 279.072C376.063 278.689 376.959 278.498 377.902 278.498Z" fill="#B6D4EC"/>
<path d="M380.835 278.908H388.484L392.627 292.033C392.723 292.334 392.805 292.662 392.873 293.018C392.955 293.359 393.023 293.722 393.078 294.104C393.133 294.487 393.174 294.877 393.201 295.273H393.345C393.413 294.631 393.502 294.043 393.611 293.51C393.734 292.977 393.871 292.491 394.021 292.054L398.164 278.908H405.608L396.175 304.194C395.519 305.931 394.719 307.38 393.775 308.542C392.846 309.718 391.731 310.6 390.433 311.188C389.134 311.789 387.609 312.09 385.859 312.09C385.135 312.09 384.506 312.049 383.973 311.967C383.453 311.898 383.002 311.823 382.619 311.741V306.102C382.92 306.17 383.289 306.231 383.727 306.286C384.164 306.341 384.622 306.368 385.101 306.368C385.976 306.368 386.707 306.184 387.295 305.814C387.896 305.459 388.389 304.98 388.771 304.379C389.168 303.777 389.489 303.121 389.735 302.41L389.961 301.754L380.835 278.908Z" fill="#B6D4EC"/>
<path d="M432.453 302H425.214V277.965H417.482V272.018H440.164V277.965H432.453V302Z" fill="#B6D4EC"/>
<path d="M465.655 290.413C465.655 292.341 465.389 294.05 464.855 295.54C464.336 297.03 463.577 298.288 462.579 299.313C461.595 300.325 460.398 301.098 458.99 301.631C457.582 302.15 455.996 302.41 454.232 302.41C452.592 302.41 451.081 302.15 449.7 301.631C448.333 301.098 447.137 300.325 446.111 299.313C445.1 298.288 444.313 297.03 443.753 295.54C443.206 294.05 442.933 292.341 442.933 290.413C442.933 287.856 443.391 285.696 444.307 283.933C445.236 282.155 446.549 280.809 448.244 279.893C449.953 278.963 451.99 278.498 454.355 278.498C456.543 278.498 458.484 278.963 460.18 279.893C461.889 280.809 463.229 282.155 464.199 283.933C465.17 285.696 465.655 287.856 465.655 290.413ZM450.192 290.413C450.192 291.821 450.329 293.011 450.603 293.981C450.89 294.952 451.334 295.684 451.936 296.176C452.551 296.668 453.344 296.914 454.314 296.914C455.285 296.914 456.064 296.668 456.652 296.176C457.254 295.684 457.691 294.952 457.965 293.981C458.238 293.011 458.375 291.821 458.375 290.413C458.375 288.991 458.238 287.809 457.965 286.865C457.691 285.908 457.254 285.19 456.652 284.712C456.051 284.233 455.258 283.994 454.273 283.994C452.838 283.994 451.799 284.534 451.156 285.614C450.514 286.681 450.192 288.28 450.192 290.413Z" fill="#B6D4EC"/>
<path d="M481.077 296.75C481.774 296.75 482.438 296.682 483.066 296.545C483.695 296.395 484.331 296.21 484.974 295.991V301.241C484.208 301.583 483.333 301.863 482.349 302.082C481.364 302.301 480.195 302.41 478.842 302.41C477.406 302.41 476.128 302.185 475.007 301.733C473.899 301.269 473.031 300.469 472.402 299.334C471.773 298.199 471.459 296.613 471.459 294.576V284.261H468.547V281.308L472.054 279.011L474.002 274.15H478.616V278.908H484.687V284.261H478.616V294.31C478.616 295.13 478.835 295.745 479.272 296.155C479.724 296.552 480.325 296.75 481.077 296.75Z" fill="#B6D4EC"/>
<path d="M499.698 278.478C502.706 278.478 505.03 279.175 506.671 280.569C508.325 281.964 509.152 284.021 509.152 286.742V302H504.189L502.815 298.903H502.651C501.995 299.724 501.325 300.394 500.642 300.913C499.958 301.419 499.172 301.795 498.283 302.041C497.395 302.287 496.308 302.41 495.022 302.41C493.683 302.41 492.473 302.144 491.393 301.61C490.326 301.077 489.485 300.264 488.87 299.17C488.255 298.076 487.947 296.695 487.947 295.027C487.947 292.566 488.802 290.748 490.511 289.572C492.233 288.383 494.77 287.72 498.119 287.583L502.036 287.46V286.804C502.036 285.683 501.749 284.876 501.175 284.384C500.614 283.878 499.835 283.625 498.837 283.625C497.825 283.625 496.772 283.782 495.679 284.097C494.585 284.411 493.484 284.814 492.377 285.307L490.183 280.549C491.468 279.893 492.91 279.387 494.51 279.031C496.109 278.662 497.839 278.478 499.698 278.478ZM502.057 291.5L499.924 291.582C498.174 291.637 496.95 291.944 496.253 292.505C495.569 293.065 495.228 293.831 495.228 294.802C495.228 295.677 495.474 296.312 495.966 296.709C496.458 297.092 497.107 297.283 497.914 297.283C499.062 297.283 500.04 296.935 500.847 296.237C501.653 295.526 502.057 294.562 502.057 293.346V291.5Z" fill="#B6D4EC"/>
<path d="M522.277 302H515.141V270.09H522.277V302Z" fill="#B6D4EC"/>
<path d="M217.617 542H201.334V517.555H182.508V542H166.225V482.035H182.508V504.266H201.334V482.035H217.617V542Z" fill="#F8F8F1"/>
<path d="M266.221 542H230.619V482.035H266.221V495.037H246.82V504.471H264.785V517.473H246.82V528.793H266.221V542ZM248.748 561.646C246.424 561.646 244.428 561.154 242.76 560.17C241.119 559.213 240.299 557.354 240.299 554.592C240.299 551.748 241.119 549.848 242.76 548.891C244.428 547.934 246.424 547.455 248.748 547.455C251.072 547.455 253.082 547.934 254.777 548.891C256.473 549.848 257.32 551.748 257.32 554.592C257.32 557.354 256.473 559.213 254.777 560.17C253.082 561.154 251.072 561.646 248.748 561.646ZM256.623 464.111C257.498 465.396 258.578 466.818 259.863 468.377C261.148 469.908 262.447 471.385 263.76 472.807C265.072 474.229 266.193 475.418 267.123 476.375V477.564H256.705C255.256 476.717 253.889 475.801 252.604 474.816C251.318 473.805 249.951 472.67 248.502 471.412C247.025 472.67 245.686 473.777 244.482 474.734C243.307 475.691 241.98 476.635 240.504 477.564H229.922V476.375C230.988 475.363 232.178 474.146 233.49 472.725C234.83 471.303 236.129 469.84 237.387 468.336C238.645 466.805 239.684 465.396 240.504 464.111H256.623Z" fill="#F8F8F1"/>
<path d="M324.996 542H308.795V495.283H294.152V482.035H339.598V495.283H324.996V542Z" fill="#F8F8F1"/>
<path d="M399.562 542H383.279V517.555H364.453V542H348.17V482.035H364.453V504.266H383.279V482.035H399.562V542Z" fill="#F8F8F1"/>
<path d="M468.674 511.936C468.674 516.557 468.113 520.768 466.992 524.568C465.898 528.342 464.176 531.596 461.824 534.33C459.473 537.064 456.451 539.17 452.76 540.646C449.068 542.096 444.652 542.82 439.512 542.82C434.48 542.82 430.119 542.096 426.428 540.646C422.764 539.17 419.742 537.078 417.363 534.371C414.984 531.637 413.221 528.369 412.072 524.568C410.924 520.768 410.35 516.529 410.35 511.854C410.35 505.619 411.375 500.205 413.426 495.611C415.504 490.99 418.703 487.422 423.023 484.906C427.344 482.363 432.867 481.092 439.594 481.092C446.43 481.092 451.98 482.363 456.246 484.906C460.539 487.449 463.684 491.031 465.68 495.652C467.676 500.273 468.674 505.701 468.674 511.936ZM427.412 511.936C427.412 515.545 427.822 518.648 428.643 521.246C429.463 523.844 430.762 525.84 432.539 527.234C434.316 528.629 436.641 529.326 439.512 529.326C442.492 529.326 444.857 528.629 446.607 527.234C448.385 525.84 449.656 523.844 450.422 521.246C451.215 518.648 451.611 515.545 451.611 511.936C451.611 506.521 450.709 502.242 448.904 499.098C447.1 495.953 443.996 494.381 439.594 494.381C436.668 494.381 434.303 495.092 432.498 496.514C430.721 497.936 429.422 499.959 428.602 502.584C427.809 505.209 427.412 508.326 427.412 511.936ZM455.959 477.236H447.551C446.184 476.307 444.762 475.268 443.285 474.119C441.809 472.971 440.346 471.74 438.896 470.428C437.447 471.74 435.984 472.971 434.508 474.119C433.059 475.268 431.637 476.307 430.242 477.236H421.875V476.047C422.805 474.98 423.789 473.764 424.828 472.396C425.867 471.002 426.893 469.58 427.904 468.131C428.916 466.654 429.846 465.287 430.693 464.029H447.141C447.988 465.287 448.918 466.654 449.93 468.131C450.941 469.58 451.967 471.002 453.006 472.396C454.072 473.764 455.057 474.98 455.959 476.047V477.236ZM452.104 468.09C453.197 467.023 454.223 465.848 455.18 464.562C456.164 463.277 457.094 461.732 457.969 459.928H469.658V460.789C468.455 462.402 466.924 463.92 465.064 465.342C463.205 466.764 461.428 468.062 459.732 469.238H452.104V468.09Z" fill="#F8F8F1"/>
<path d="M536.596 542H515.35L493.447 499.754H493.078C493.215 501.039 493.338 502.584 493.447 504.389C493.557 506.193 493.652 508.039 493.734 509.926C493.816 511.785 493.857 513.467 493.857 514.971V542H479.502V482.035H500.666L522.486 523.707H522.732C522.65 522.395 522.568 520.877 522.486 519.154C522.404 517.404 522.322 515.641 522.24 513.863C522.186 512.086 522.158 510.514 522.158 509.146V482.035H536.596V542Z" fill="#F8F8F1"/>
<path d="M573.633 506.891H599.514V539.211C596.424 540.277 592.883 541.152 588.891 541.836C584.898 542.492 580.715 542.82 576.34 542.82C570.57 542.82 565.512 541.699 561.164 539.457C556.816 537.215 553.426 533.811 550.992 529.244C548.559 524.65 547.342 518.854 547.342 511.854C547.342 505.564 548.545 500.137 550.951 495.57C553.357 490.977 556.898 487.436 561.574 484.947C566.277 482.432 572.033 481.174 578.842 481.174C582.588 481.174 586.143 481.529 589.506 482.24C592.869 482.951 595.795 483.854 598.283 484.947L593.156 497.662C590.996 496.596 588.754 495.803 586.43 495.283C584.105 494.736 581.604 494.463 578.924 494.463C575.342 494.463 572.457 495.27 570.27 496.883C568.109 498.496 566.537 500.656 565.553 503.363C564.568 506.043 564.076 509.01 564.076 512.264C564.076 515.982 564.596 519.127 565.635 521.697C566.701 524.24 568.246 526.182 570.27 527.521C572.32 528.834 574.795 529.49 577.693 529.49C578.65 529.49 579.812 529.422 581.18 529.285C582.574 529.148 583.627 528.984 584.338 528.793V519.4H573.633V506.891Z" fill="#F8F8F1"/>
<path d="M192.813 595.968C192.813 598.114 192.567 600.097 192.075 601.915C191.597 603.72 190.845 605.299 189.819 606.652C188.794 608.006 187.481 609.086 185.882 609.893L193.142 618.137H184.036L178.766 611.41C178.711 611.41 178.643 611.41 178.561 611.41C178.492 611.41 178.431 611.41 178.376 611.41C175.901 611.41 173.755 611.048 171.937 610.323C170.118 609.585 168.621 608.532 167.445 607.165C166.27 605.798 165.395 604.164 164.82 602.264C164.246 600.363 163.959 598.251 163.959 595.927C163.959 592.81 164.472 590.103 165.497 587.806C166.522 585.495 168.102 583.711 170.234 582.453C172.381 581.182 175.108 580.546 178.417 580.546C181.753 580.546 184.48 581.182 186.6 582.453C188.719 583.725 190.284 585.516 191.296 587.826C192.308 590.137 192.813 592.851 192.813 595.968ZM171.547 595.968C171.547 597.909 171.779 599.584 172.244 600.992C172.723 602.4 173.461 603.48 174.459 604.232C175.471 604.984 176.776 605.36 178.376 605.36C180.03 605.36 181.356 604.984 182.354 604.232C183.353 603.48 184.077 602.4 184.528 600.992C184.979 599.584 185.205 597.909 185.205 595.968C185.205 593.042 184.686 590.738 183.646 589.057C182.607 587.361 180.864 586.514 178.417 586.514C176.79 586.514 175.471 586.896 174.459 587.662C173.447 588.414 172.709 589.501 172.244 590.923C171.779 592.331 171.547 594.013 171.547 595.968Z" fill="#F8F8F1"/>
<path d="M223.596 581.018V599.741C223.596 602.024 223.124 604.048 222.181 605.812C221.251 607.562 219.85 608.936 217.977 609.934C216.104 610.918 213.745 611.41 210.901 611.41C206.854 611.41 203.765 610.378 201.632 608.313C199.513 606.235 198.453 603.392 198.453 599.782V581.018H205.692V598.982C205.692 601.279 206.144 602.92 207.046 603.904C207.948 604.875 209.281 605.36 211.045 605.36C212.303 605.36 213.321 605.142 214.101 604.704C214.88 604.253 215.454 603.556 215.823 602.612C216.192 601.655 216.377 600.432 216.377 598.941V581.018H223.596Z" fill="#F8F8F1"/>
<path d="M248.8 611L246.975 604.622H236.639L234.793 611H226.918L237.11 580.895H246.4L256.654 611H248.8ZM245.375 598.634L243.652 592.687C243.516 592.181 243.324 591.497 243.078 590.636C242.832 589.774 242.586 588.893 242.34 587.99C242.107 587.074 241.923 586.309 241.786 585.693C241.663 586.309 241.485 587.074 241.253 587.99C241.021 588.906 240.788 589.795 240.556 590.656C240.323 591.518 240.139 592.194 240.002 592.687L238.279 598.634H245.375ZM247.2 573.614C247.2 574.667 246.92 575.556 246.359 576.28C245.799 576.991 244.951 577.497 243.816 577.798L243.591 579.008H239.694L239.161 576.178C240.132 576.041 240.788 575.815 241.13 575.501C241.472 575.173 241.643 574.756 241.643 574.25C241.643 573.826 241.499 573.498 241.212 573.266C240.938 573.033 240.576 572.917 240.125 572.917C239.592 572.917 239.113 572.965 238.689 573.061C238.266 573.143 237.801 573.272 237.295 573.45V569.636C237.732 569.472 238.334 569.342 239.1 569.246C239.879 569.137 240.631 569.082 241.355 569.082C243.324 569.082 244.787 569.485 245.744 570.292C246.715 571.099 247.2 572.206 247.2 573.614Z" fill="#F8F8F1"/>
<path d="M287.744 611H278.393L266.396 589.098H266.211C266.266 589.891 266.313 590.752 266.354 591.682C266.409 592.611 266.457 593.548 266.498 594.491C266.539 595.435 266.573 596.33 266.601 597.178V611H260.161V581.018H269.472L281.428 602.653H281.571C281.53 601.86 281.489 601.02 281.448 600.131C281.407 599.242 281.366 598.347 281.325 597.444C281.298 596.542 281.277 595.688 281.264 594.881V581.018H287.744V611Z" fill="#F8F8F1"/>
<path d="M305.688 611V581.018H312.928V605.094H324.781V611H305.688Z" fill="#F8F8F1"/>
<path d="M339.834 592.748L345.535 581.018H353.349L343.443 599.311V611H336.204V599.536L326.299 581.018H334.153L339.834 592.748ZM348.857 571.912V572.343C348.406 572.726 347.825 573.204 347.114 573.778C346.417 574.339 345.672 574.927 344.879 575.542C344.086 576.144 343.307 576.718 342.541 577.265C341.789 577.812 341.14 578.27 340.593 578.639H335.835V578.064C336.3 577.545 336.847 576.93 337.476 576.219C338.118 575.494 338.754 574.756 339.383 574.004C340.012 573.238 340.538 572.541 340.962 571.912H348.857Z" fill="#F8F8F1"/>
<path d="M377.691 581.018C380.877 581.018 383.604 581.571 385.874 582.679C388.157 583.786 389.907 585.42 391.124 587.58C392.341 589.74 392.949 592.393 392.949 595.537C392.949 598.969 392.3 601.833 391.001 604.13C389.716 606.413 387.87 608.129 385.464 609.277C383.058 610.426 380.2 611 376.892 611H367.786V599.105H365.079V593.22H367.786V581.018H377.691ZM377.876 586.883H375.025V593.22H379.619V599.105H375.025V605.053H377.261C380.022 605.053 382.073 604.28 383.413 602.735C384.767 601.19 385.443 598.866 385.443 595.763C385.443 593.753 385.156 592.092 384.582 590.779C384.008 589.467 383.16 588.489 382.039 587.847C380.918 587.204 379.53 586.883 377.876 586.883Z" fill="#F8F8F1"/>
<path d="M417.128 611L415.303 604.622H404.967L403.121 611H395.246L405.438 580.895H414.729L424.982 611H417.128ZM413.703 598.634L411.98 592.687C411.844 592.181 411.652 591.497 411.406 590.636C411.16 589.774 410.914 588.893 410.668 587.99C410.436 587.074 410.251 586.309 410.114 585.693C409.991 586.309 409.813 587.074 409.581 587.99C409.349 588.906 409.116 589.795 408.884 590.656C408.651 591.518 408.467 592.194 408.33 592.687L406.607 598.634H413.703ZM418.42 571.358C418.324 572.794 417.928 574.059 417.23 575.152C416.547 576.246 415.604 577.101 414.4 577.716C413.197 578.331 411.782 578.639 410.155 578.639C407.626 578.639 405.671 577.982 404.29 576.67C402.909 575.357 402.164 573.587 402.055 571.358H405.972C406.108 572.138 406.354 572.719 406.71 573.102C407.079 573.471 407.551 573.71 408.125 573.819C408.713 573.929 409.396 573.983 410.176 573.983C410.805 573.983 411.413 573.922 412.001 573.799C412.603 573.662 413.115 573.402 413.539 573.02C413.963 572.637 414.243 572.083 414.38 571.358H418.42Z" fill="#F8F8F1"/>
<path d="M456.072 611H446.721L434.724 589.098H434.539C434.594 589.891 434.642 590.752 434.683 591.682C434.737 592.611 434.785 593.548 434.826 594.491C434.867 595.435 434.901 596.33 434.929 597.178V611H428.489V581.018H437.8L449.756 602.653H449.899C449.858 601.86 449.817 601.02 449.776 600.131C449.735 599.242 449.694 598.347 449.653 597.444C449.626 596.542 449.605 595.688 449.592 594.881V581.018H456.072V611Z" fill="#F8F8F1"/>
<path d="M474.816 593.794H487.244V609.646C485.686 610.18 483.983 610.61 482.138 610.938C480.292 611.253 478.282 611.41 476.108 611.41C473.183 611.41 470.653 610.836 468.521 609.688C466.401 608.539 464.768 606.816 463.619 604.52C462.471 602.223 461.896 599.365 461.896 595.947C461.896 592.803 462.498 590.082 463.701 587.785C464.904 585.488 466.675 583.718 469.013 582.474C471.351 581.216 474.215 580.587 477.605 580.587C479.328 580.587 480.996 580.765 482.609 581.12C484.223 581.462 485.658 581.906 486.916 582.453L484.578 588.175C483.58 587.669 482.493 587.272 481.317 586.985C480.155 586.698 478.918 586.555 477.605 586.555C475.787 586.555 474.263 586.972 473.032 587.806C471.815 588.626 470.893 589.754 470.264 591.189C469.648 592.625 469.341 594.266 469.341 596.111C469.341 598.012 469.607 599.659 470.141 601.054C470.674 602.448 471.48 603.528 472.561 604.294C473.641 605.046 475.008 605.422 476.662 605.422C477.346 605.422 478.016 605.388 478.672 605.319C479.328 605.237 479.882 605.148 480.333 605.053V599.577H474.816V593.794Z" fill="#F8F8F1"/>
<path d="M529.654 611H521.472L514.581 598.941L512.038 600.623V611H504.778V581.018H512.038V594.389C512.421 593.76 512.824 593.138 513.248 592.522C513.672 591.894 514.096 591.285 514.52 590.697L521.738 581.018H529.695L519.729 594.368L529.654 611Z" fill="#F8F8F1"/>
<path d="M533.161 611V581.018H540.421V611H533.161Z" fill="#F8F8F1"/>
<path d="M564.969 611H547.435V581.018H564.969V586.862H554.674V592.522H564.23V598.367H554.674V605.073H564.969V611ZM559.842 572.158C560.266 572.787 560.73 573.457 561.236 574.168C561.742 574.879 562.255 575.569 562.774 576.239C563.308 576.909 563.8 577.511 564.251 578.044V578.618H560.498C559.801 578.153 559.083 577.634 558.345 577.06C557.606 576.485 556.882 575.87 556.171 575.214C555.433 575.87 554.694 576.485 553.956 577.06C553.231 577.634 552.527 578.153 551.844 578.618H548.091V578.044C548.556 577.511 549.048 576.909 549.567 576.239C550.087 575.569 550.6 574.879 551.105 574.168C551.611 573.457 552.076 572.787 552.5 572.158H559.842ZM564.251 567.482C565.536 567.482 566.575 567.735 567.368 568.241C568.175 568.733 568.578 569.547 568.578 570.682C568.578 571.461 568.359 572.097 567.922 572.589C567.484 573.081 566.849 573.409 566.015 573.573L565.892 574.701H563L562.774 572.404C563.786 572.377 564.449 572.247 564.764 572.015C565.092 571.769 565.256 571.516 565.256 571.256C565.256 571.023 565.153 570.805 564.948 570.6C564.743 570.381 564.347 570.271 563.759 570.271C563.458 570.271 563.171 570.299 562.897 570.354C562.624 570.408 562.419 570.456 562.282 570.497V567.646C562.419 567.605 562.665 567.571 563.021 567.544C563.376 567.503 563.786 567.482 564.251 567.482Z" fill="#F8F8F1"/>
<path d="M583.61 611L576.945 588.441H576.761C576.802 589.002 576.85 589.802 576.904 590.841C576.973 591.88 577.034 592.994 577.089 594.184C577.144 595.373 577.171 596.48 577.171 597.506V611H570.731V581.018H580.452L587.138 603.125H587.281L594.11 581.018H603.831V611H597.146V597.321C597.146 596.378 597.159 595.332 597.187 594.184C597.228 593.021 597.275 591.921 597.33 590.882C597.385 589.843 597.426 589.043 597.453 588.482H597.269L590.378 611H583.61Z" fill="#F8F8F1"/>
</svg>
