<svg width="640" height="1080" viewBox="0 0 640 1080" fill="none" xmlns="http://www.w3.org/2000/svg">
<path d="M640 0H0V1080H640V0Z" fill="#02223C"/>
<path d="M326.2 1080C324 1032.4 321.8 984.7 350 959.9C378.3 935 436.9 933 468.2 908.2C499.5 883.4 503.4 835.8 527.5 808.4C551.6 780.9 595.8 773.5 640 766.2V1080H326.2Z" fill="#B6D4EC"/>
<path d="M313.8 0C294.7 36.5 275.5 73 258.7 107.2C241.8 141.3 227.3 173.1 205.8 205.8C184.2 238.4 155.6 271.8 120.1 290C84.6 308.1 42.3 311 0 313.8V0H313.8Z" fill="#B6D4EC"/>
<path fill-rule="evenodd" clip-rule="evenodd" d="M320 226.818C310.51 226.818 302.818 234.51 302.818 244C302.818 253.49 310.51 261.182 320 261.182C329.49 261.182 337.182 253.49 337.182 244C337.182 234.51 329.49 226.818 320 226.818ZM299 244C299 232.403 308.403 223 320 223C331.597 223 341 232.403 341 244C341 255.597 331.597 265 320 265C308.403 265 299 255.597 299 244Z" fill="#B6D4EC"/>
<path fill-rule="evenodd" clip-rule="evenodd" d="M313.636 238.13L302.192 240.418L301.444 236.674L312.887 234.385C317.583 233.445 322.418 233.445 327.115 234.385L338.556 236.674L337.808 240.418L326.366 238.13C322.164 237.289 317.836 237.289 313.636 238.13Z" fill="#B6D4EC"/>
<path fill-rule="evenodd" clip-rule="evenodd" d="M304.088 251.364H301.818V247.546H304.088C310.054 247.546 315.299 251.501 316.938 257.238L318.2 261.657L314.53 262.707L313.267 258.287C312.096 254.189 308.35 251.364 304.088 251.364ZM326.735 258.287L325.472 262.707L321.801 261.657L323.064 257.238C324.703 251.501 329.946 247.546 335.914 247.546H338.182V251.364H335.914C331.652 251.364 327.906 254.189 326.735 258.287Z" fill="#B6D4EC"/>
<path fill-rule="evenodd" clip-rule="evenodd" d="M320.002 243.181C319.046 243.181 318.274 243.956 318.274 244.909C318.274 245.863 319.046 246.637 320.002 246.637C320.955 246.637 321.728 245.863 321.728 244.909C321.728 243.956 320.955 243.181 320.002 243.181ZM314.456 244.909C314.456 241.847 316.938 239.364 320.002 239.364C323.064 239.364 325.546 241.847 325.546 244.909C325.546 247.972 323.064 250.455 320.002 250.455C316.938 250.455 314.456 247.972 314.456 244.909Z" fill="#B6D4EC"/>
<path d="M177.797 299.018C180.518 299.018 182.767 299.346 184.544 300.002C186.335 300.658 187.675 301.649 188.563 302.976C189.452 304.288 189.896 305.942 189.896 307.938C189.896 309.224 189.664 310.372 189.199 311.384C188.734 312.396 188.099 313.277 187.292 314.029C186.485 314.781 185.576 315.417 184.564 315.937L193.342 329H185.221L178.453 317.782H175.746V329H168.507V299.018H177.797ZM177.51 304.678H175.746V312.163H177.53C179.198 312.163 180.456 311.849 181.304 311.22C182.165 310.591 182.596 309.586 182.596 308.205C182.596 307.002 182.186 306.113 181.365 305.539C180.545 304.965 179.26 304.678 177.51 304.678Z" fill="#B6D4EC"/>
<path d="M206.077 305.498C208.265 305.498 210.151 305.901 211.737 306.708C213.323 307.501 214.547 308.677 215.408 310.235C216.27 311.794 216.7 313.722 216.7 316.019V319.32H202.14C202.208 320.811 202.7 322 203.616 322.889C204.532 323.777 205.845 324.222 207.554 324.222C209.003 324.222 210.336 324.078 211.553 323.791C212.77 323.49 214.021 323.039 215.306 322.438V327.749C214.171 328.323 212.961 328.74 211.676 329C210.404 329.273 208.818 329.41 206.918 329.41C204.607 329.41 202.543 328.993 200.725 328.159C198.92 327.312 197.498 326.02 196.459 324.283C195.434 322.533 194.921 320.312 194.921 317.618C194.921 314.884 195.386 312.621 196.315 310.83C197.259 309.039 198.564 307.706 200.232 306.831C201.914 305.942 203.862 305.498 206.077 305.498ZM206.241 310.44C205.161 310.44 204.259 310.789 203.534 311.486C202.823 312.17 202.413 313.243 202.304 314.706H210.138C210.124 313.899 209.967 313.175 209.666 312.532C209.379 311.89 208.948 311.384 208.374 311.015C207.813 310.632 207.103 310.44 206.241 310.44Z" fill="#B6D4EC"/>
<path d="M228.841 339.09C225.587 339.09 223.092 338.536 221.355 337.429C219.619 336.321 218.751 334.749 218.751 332.712C218.751 331.331 219.182 330.183 220.043 329.267C220.904 328.351 222.183 327.694 223.878 327.298C223.208 327.011 222.62 326.546 222.114 325.903C221.608 325.247 221.355 324.584 221.355 323.914C221.355 323.107 221.581 322.424 222.032 321.863C222.483 321.289 223.263 320.674 224.37 320.018C223.167 319.484 222.217 318.65 221.52 317.516C220.822 316.367 220.474 315 220.474 313.414C220.474 311.732 220.85 310.304 221.602 309.128C222.354 307.952 223.447 307.057 224.883 306.441C226.332 305.812 228.096 305.498 230.174 305.498C230.529 305.498 230.994 305.525 231.568 305.58C232.143 305.621 232.696 305.676 233.229 305.744C233.763 305.812 234.152 305.867 234.398 305.908H242.458V309.436L239.074 310.481C239.348 310.933 239.553 311.418 239.689 311.938C239.826 312.457 239.895 313.011 239.895 313.599C239.895 316.073 239.026 318.001 237.29 319.382C235.554 320.763 233.052 321.453 229.784 321.453C228.991 321.426 228.308 321.371 227.733 321.289C227.528 321.494 227.371 321.713 227.262 321.945C227.152 322.164 227.098 322.383 227.098 322.602C227.098 322.916 227.255 323.169 227.569 323.36C227.884 323.552 228.301 323.688 228.82 323.771C229.354 323.853 229.935 323.894 230.563 323.894H234.439C237.01 323.894 238.944 324.44 240.243 325.534C241.556 326.614 242.212 328.228 242.212 330.374C242.212 333.136 241.05 335.275 238.726 336.793C236.401 338.324 233.106 339.09 228.841 339.09ZM229.169 334.537C230.399 334.537 231.527 334.421 232.553 334.188C233.578 333.97 234.398 333.635 235.014 333.184C235.643 332.746 235.957 332.192 235.957 331.522C235.957 330.989 235.772 330.579 235.403 330.292C235.048 330.005 234.542 329.807 233.886 329.697C233.229 329.588 232.464 329.533 231.589 329.533H228.41C227.74 329.533 227.132 329.643 226.585 329.861C226.052 330.08 225.628 330.374 225.313 330.743C224.999 331.126 224.842 331.563 224.842 332.056C224.842 332.821 225.225 333.423 225.99 333.86C226.77 334.312 227.829 334.537 229.169 334.537ZM230.215 317.27C231.186 317.27 231.91 316.941 232.389 316.285C232.867 315.629 233.106 314.699 233.106 313.496C233.106 312.197 232.867 311.227 232.389 310.584C231.91 309.941 231.186 309.62 230.215 309.62C229.217 309.62 228.472 309.941 227.979 310.584C227.487 311.227 227.241 312.19 227.241 313.476C227.241 314.692 227.487 315.629 227.979 316.285C228.472 316.941 229.217 317.27 230.215 317.27Z" fill="#B6D4EC"/>
<path d="M253.286 305.908V329H246.149V305.908H253.286ZM249.738 296.741C250.777 296.741 251.673 296.974 252.425 297.438C253.19 297.89 253.573 298.765 253.573 300.063C253.573 301.335 253.19 302.203 252.425 302.668C251.673 303.133 250.777 303.365 249.738 303.365C248.672 303.365 247.763 303.133 247.011 302.668C246.272 302.203 245.903 301.335 245.903 300.063C245.903 298.765 246.272 297.89 247.011 297.438C247.763 296.974 248.672 296.741 249.738 296.741Z" fill="#B6D4EC"/>
<path d="M276.009 322.027C276.009 323.545 275.66 324.857 274.963 325.965C274.266 327.059 273.192 327.906 271.743 328.508C270.308 329.109 268.462 329.41 266.206 329.41C264.579 329.41 263.15 329.314 261.92 329.123C260.703 328.932 259.466 328.59 258.208 328.098V322.294C259.562 322.909 260.977 323.381 262.453 323.709C263.93 324.037 265.153 324.201 266.124 324.201C267.19 324.201 267.956 324.064 268.421 323.791C268.899 323.504 269.139 323.114 269.139 322.622C269.139 322.267 269.016 321.952 268.77 321.679C268.523 321.405 268.045 321.091 267.334 320.735C266.623 320.38 265.57 319.915 264.176 319.341C262.822 318.767 261.701 318.172 260.812 317.557C259.924 316.928 259.261 316.189 258.823 315.342C258.386 314.48 258.167 313.407 258.167 312.122C258.167 309.921 259.015 308.267 260.71 307.159C262.419 306.052 264.682 305.498 267.498 305.498C268.975 305.498 270.376 305.655 271.702 305.97C273.028 306.271 274.396 306.742 275.804 307.385L273.753 312.225C272.618 311.719 271.504 311.309 270.41 310.994C269.316 310.68 268.339 310.522 267.478 310.522C266.698 310.522 266.104 310.625 265.693 310.83C265.297 311.035 265.099 311.343 265.099 311.753C265.099 312.081 265.215 312.375 265.447 312.635C265.693 312.881 266.158 313.161 266.842 313.476C267.525 313.79 268.523 314.214 269.836 314.747C271.162 315.294 272.283 315.868 273.199 316.47C274.115 317.071 274.812 317.81 275.291 318.685C275.77 319.546 276.009 320.66 276.009 322.027Z" fill="#B6D4EC"/>
<path d="M291.226 323.75C291.923 323.75 292.586 323.682 293.215 323.545C293.844 323.395 294.479 323.21 295.122 322.991V328.241C294.356 328.583 293.481 328.863 292.497 329.082C291.513 329.301 290.344 329.41 288.99 329.41C287.555 329.41 286.276 329.185 285.155 328.733C284.048 328.269 283.18 327.469 282.551 326.334C281.922 325.199 281.607 323.613 281.607 321.576V311.261H278.695V308.308L282.202 306.011L284.15 301.15H288.765V305.908H294.835V311.261H288.765V321.31C288.765 322.13 288.983 322.745 289.421 323.155C289.872 323.552 290.474 323.75 291.226 323.75Z" fill="#B6D4EC"/>
<path d="M312.902 305.498C313.271 305.498 313.682 305.525 314.133 305.58C314.584 305.621 314.933 305.662 315.179 305.703L314.584 312.43C314.352 312.361 314.037 312.307 313.641 312.266C313.244 312.225 312.793 312.204 312.287 312.204C311.631 312.204 310.968 312.279 310.298 312.43C309.642 312.58 309.033 312.847 308.473 313.229C307.912 313.612 307.461 314.146 307.119 314.829C306.791 315.513 306.627 316.388 306.627 317.454V329H299.49V305.908H304.843L305.93 309.702H306.278C306.716 308.923 307.27 308.219 307.939 307.59C308.609 306.947 309.368 306.441 310.216 306.072C311.063 305.689 311.959 305.498 312.902 305.498Z" fill="#B6D4EC"/>
<path d="M315.835 305.908H323.484L327.627 319.033C327.723 319.334 327.805 319.662 327.873 320.018C327.955 320.359 328.023 320.722 328.078 321.104C328.133 321.487 328.174 321.877 328.201 322.273H328.345C328.413 321.631 328.502 321.043 328.611 320.51C328.734 319.977 328.871 319.491 329.021 319.054L333.164 305.908H340.608L331.175 331.194C330.519 332.931 329.719 334.38 328.775 335.542C327.846 336.718 326.731 337.6 325.433 338.188C324.134 338.789 322.609 339.09 320.859 339.09C320.135 339.09 319.506 339.049 318.973 338.967C318.453 338.898 318.002 338.823 317.619 338.741V333.102C317.92 333.17 318.289 333.231 318.727 333.286C319.164 333.341 319.622 333.368 320.101 333.368C320.976 333.368 321.707 333.184 322.295 332.814C322.896 332.459 323.389 331.98 323.771 331.379C324.168 330.777 324.489 330.121 324.735 329.41L324.961 328.754L315.835 305.908Z" fill="#B6D4EC"/>
<path d="M367.453 329H360.214V304.965H352.482V299.018H375.164V304.965H367.453V329Z" fill="#B6D4EC"/>
<path d="M400.655 317.413C400.655 319.341 400.389 321.05 399.855 322.54C399.336 324.03 398.577 325.288 397.579 326.313C396.595 327.325 395.398 328.098 393.99 328.631C392.582 329.15 390.996 329.41 389.232 329.41C387.592 329.41 386.081 329.15 384.7 328.631C383.333 328.098 382.137 327.325 381.111 326.313C380.1 325.288 379.313 324.03 378.753 322.54C378.206 321.05 377.933 319.341 377.933 317.413C377.933 314.856 378.391 312.696 379.307 310.933C380.236 309.155 381.549 307.809 383.244 306.893C384.953 305.963 386.99 305.498 389.355 305.498C391.543 305.498 393.484 305.963 395.18 306.893C396.889 307.809 398.229 309.155 399.199 310.933C400.17 312.696 400.655 314.856 400.655 317.413ZM385.192 317.413C385.192 318.821 385.329 320.011 385.603 320.981C385.89 321.952 386.334 322.684 386.936 323.176C387.551 323.668 388.344 323.914 389.314 323.914C390.285 323.914 391.064 323.668 391.652 323.176C392.254 322.684 392.691 321.952 392.965 320.981C393.238 320.011 393.375 318.821 393.375 317.413C393.375 315.991 393.238 314.809 392.965 313.865C392.691 312.908 392.254 312.19 391.652 311.712C391.051 311.233 390.258 310.994 389.273 310.994C387.838 310.994 386.799 311.534 386.156 312.614C385.514 313.681 385.192 315.28 385.192 317.413Z" fill="#B6D4EC"/>
<path d="M416.077 323.75C416.774 323.75 417.438 323.682 418.066 323.545C418.695 323.395 419.331 323.21 419.974 322.991V328.241C419.208 328.583 418.333 328.863 417.349 329.082C416.364 329.301 415.195 329.41 413.842 329.41C412.406 329.41 411.128 329.185 410.007 328.733C408.899 328.269 408.031 327.469 407.402 326.334C406.773 325.199 406.459 323.613 406.459 321.576V311.261H403.547V308.308L407.054 306.011L409.002 301.15H413.616V305.908H419.687V311.261H413.616V321.31C413.616 322.13 413.835 322.745 414.272 323.155C414.724 323.552 415.325 323.75 416.077 323.75Z" fill="#B6D4EC"/>
<path d="M434.698 305.478C437.706 305.478 440.03 306.175 441.671 307.569C443.325 308.964 444.152 311.021 444.152 313.742V329H439.189L437.815 325.903H437.651C436.995 326.724 436.325 327.394 435.642 327.913C434.958 328.419 434.172 328.795 433.283 329.041C432.395 329.287 431.308 329.41 430.022 329.41C428.683 329.41 427.473 329.144 426.393 328.61C425.326 328.077 424.485 327.264 423.87 326.17C423.255 325.076 422.947 323.695 422.947 322.027C422.947 319.566 423.802 317.748 425.511 316.572C427.233 315.383 429.77 314.72 433.119 314.583L437.036 314.46V313.804C437.036 312.683 436.749 311.876 436.175 311.384C435.614 310.878 434.835 310.625 433.837 310.625C432.825 310.625 431.772 310.782 430.679 311.097C429.585 311.411 428.484 311.814 427.377 312.307L425.183 307.549C426.468 306.893 427.91 306.387 429.51 306.031C431.109 305.662 432.839 305.478 434.698 305.478ZM437.057 318.5L434.924 318.582C433.174 318.637 431.95 318.944 431.253 319.505C430.569 320.065 430.228 320.831 430.228 321.802C430.228 322.677 430.474 323.312 430.966 323.709C431.458 324.092 432.107 324.283 432.914 324.283C434.062 324.283 435.04 323.935 435.847 323.237C436.653 322.526 437.057 321.562 437.057 320.346V318.5Z" fill="#B6D4EC"/>
<path d="M457.277 329H450.141V297.09H457.277V329Z" fill="#B6D4EC"/>
<path d="M152.617 542H136.334V517.555H117.508V542H101.225V482.035H117.508V504.266H136.334V482.035H152.617V542Z" fill="#F8F8F1"/>
<path d="M201.221 542H165.619V482.035H201.221V495.037H181.82V504.471H199.785V517.473H181.82V528.793H201.221V542ZM183.748 561.646C181.424 561.646 179.428 561.154 177.76 560.17C176.119 559.213 175.299 557.354 175.299 554.592C175.299 551.748 176.119 549.848 177.76 548.891C179.428 547.934 181.424 547.455 183.748 547.455C186.072 547.455 188.082 547.934 189.777 548.891C191.473 549.848 192.32 551.748 192.32 554.592C192.32 557.354 191.473 559.213 189.777 560.17C188.082 561.154 186.072 561.646 183.748 561.646ZM191.623 464.111C192.498 465.396 193.578 466.818 194.863 468.377C196.148 469.908 197.447 471.385 198.76 472.807C200.072 474.229 201.193 475.418 202.123 476.375V477.564H191.705C190.256 476.717 188.889 475.801 187.604 474.816C186.318 473.805 184.951 472.67 183.502 471.412C182.025 472.67 180.686 473.777 179.482 474.734C178.307 475.691 176.98 476.635 175.504 477.564H164.922V476.375C165.988 475.363 167.178 474.146 168.49 472.725C169.83 471.303 171.129 469.84 172.387 468.336C173.645 466.805 174.684 465.396 175.504 464.111H191.623Z" fill="#F8F8F1"/>
<path d="M259.996 542H243.795V495.283H229.152V482.035H274.598V495.283H259.996V542Z" fill="#F8F8F1"/>
<path d="M334.562 542H318.279V517.555H299.453V542H283.17V482.035H299.453V504.266H318.279V482.035H334.562V542Z" fill="#F8F8F1"/>
<path d="M403.674 511.936C403.674 516.557 403.113 520.768 401.992 524.568C400.898 528.342 399.176 531.596 396.824 534.33C394.473 537.064 391.451 539.17 387.76 540.646C384.068 542.096 379.652 542.82 374.512 542.82C369.48 542.82 365.119 542.096 361.428 540.646C357.764 539.17 354.742 537.078 352.363 534.371C349.984 531.637 348.221 528.369 347.072 524.568C345.924 520.768 345.35 516.529 345.35 511.854C345.35 505.619 346.375 500.205 348.426 495.611C350.504 490.99 353.703 487.422 358.023 484.906C362.344 482.363 367.867 481.092 374.594 481.092C381.43 481.092 386.98 482.363 391.246 484.906C395.539 487.449 398.684 491.031 400.68 495.652C402.676 500.273 403.674 505.701 403.674 511.936ZM362.412 511.936C362.412 515.545 362.822 518.648 363.643 521.246C364.463 523.844 365.762 525.84 367.539 527.234C369.316 528.629 371.641 529.326 374.512 529.326C377.492 529.326 379.857 528.629 381.607 527.234C383.385 525.84 384.656 523.844 385.422 521.246C386.215 518.648 386.611 515.545 386.611 511.936C386.611 506.521 385.709 502.242 383.904 499.098C382.1 495.953 378.996 494.381 374.594 494.381C371.668 494.381 369.303 495.092 367.498 496.514C365.721 497.936 364.422 499.959 363.602 502.584C362.809 505.209 362.412 508.326 362.412 511.936ZM390.959 477.236H382.551C381.184 476.307 379.762 475.268 378.285 474.119C376.809 472.971 375.346 471.74 373.896 470.428C372.447 471.74 370.984 472.971 369.508 474.119C368.059 475.268 366.637 476.307 365.242 477.236H356.875V476.047C357.805 474.98 358.789 473.764 359.828 472.396C360.867 471.002 361.893 469.58 362.904 468.131C363.916 466.654 364.846 465.287 365.693 464.029H382.141C382.988 465.287 383.918 466.654 384.93 468.131C385.941 469.58 386.967 471.002 388.006 472.396C389.072 473.764 390.057 474.98 390.959 476.047V477.236ZM387.104 468.09C388.197 467.023 389.223 465.848 390.18 464.562C391.164 463.277 392.094 461.732 392.969 459.928H404.658V460.789C403.455 462.402 401.924 463.92 400.064 465.342C398.205 466.764 396.428 468.062 394.732 469.238H387.104V468.09Z" fill="#F8F8F1"/>
<path d="M471.596 542H450.35L428.447 499.754H428.078C428.215 501.039 428.338 502.584 428.447 504.389C428.557 506.193 428.652 508.039 428.734 509.926C428.816 511.785 428.857 513.467 428.857 514.971V542H414.502V482.035H435.666L457.486 523.707H457.732C457.65 522.395 457.568 520.877 457.486 519.154C457.404 517.404 457.322 515.641 457.24 513.863C457.186 512.086 457.158 510.514 457.158 509.146V482.035H471.596V542Z" fill="#F8F8F1"/>
<path d="M508.633 506.891H534.514V539.211C531.424 540.277 527.883 541.152 523.891 541.836C519.898 542.492 515.715 542.82 511.34 542.82C505.57 542.82 500.512 541.699 496.164 539.457C491.816 537.215 488.426 533.811 485.992 529.244C483.559 524.65 482.342 518.854 482.342 511.854C482.342 505.564 483.545 500.137 485.951 495.57C488.357 490.977 491.898 487.436 496.574 484.947C501.277 482.432 507.033 481.174 513.842 481.174C517.588 481.174 521.143 481.529 524.506 482.24C527.869 482.951 530.795 483.854 533.283 484.947L528.156 497.662C525.996 496.596 523.754 495.803 521.43 495.283C519.105 494.736 516.604 494.463 513.924 494.463C510.342 494.463 507.457 495.27 505.27 496.883C503.109 498.496 501.537 500.656 500.553 503.363C499.568 506.043 499.076 509.01 499.076 512.264C499.076 515.982 499.596 519.127 500.635 521.697C501.701 524.24 503.246 526.182 505.27 527.521C507.32 528.834 509.795 529.49 512.693 529.49C513.65 529.49 514.812 529.422 516.18 529.285C517.574 529.148 518.627 528.984 519.338 528.793V519.4H508.633V506.891Z" fill="#F8F8F1"/>
<path d="M127.813 595.968C127.813 598.114 127.567 600.097 127.075 601.915C126.597 603.72 125.845 605.299 124.819 606.652C123.794 608.006 122.481 609.086 120.882 609.893L128.142 618.137H119.036L113.766 611.41C113.711 611.41 113.643 611.41 113.561 611.41C113.492 611.41 113.431 611.41 113.376 611.41C110.901 611.41 108.755 611.048 106.937 610.323C105.118 609.585 103.621 608.532 102.445 607.165C101.27 605.798 100.395 604.164 99.8203 602.264C99.2461 600.363 98.959 598.251 98.959 595.927C98.959 592.81 99.4717 590.103 100.497 587.806C101.522 585.495 103.102 583.711 105.234 582.453C107.381 581.182 110.108 580.546 113.417 580.546C116.753 580.546 119.48 581.182 121.6 582.453C123.719 583.725 125.284 585.516 126.296 587.826C127.308 590.137 127.813 592.851 127.813 595.968ZM106.547 595.968C106.547 597.909 106.779 599.584 107.244 600.992C107.723 602.4 108.461 603.48 109.459 604.232C110.471 604.984 111.776 605.36 113.376 605.36C115.03 605.36 116.356 604.984 117.354 604.232C118.353 603.48 119.077 602.4 119.528 600.992C119.979 599.584 120.205 597.909 120.205 595.968C120.205 593.042 119.686 590.738 118.646 589.057C117.607 587.361 115.864 586.514 113.417 586.514C111.79 586.514 110.471 586.896 109.459 587.662C108.447 588.414 107.709 589.501 107.244 590.923C106.779 592.331 106.547 594.013 106.547 595.968Z" fill="#F8F8F1"/>
<path d="M158.596 581.018V599.741C158.596 602.024 158.124 604.048 157.181 605.812C156.251 607.562 154.85 608.936 152.977 609.934C151.104 610.918 148.745 611.41 145.901 611.41C141.854 611.41 138.765 610.378 136.632 608.313C134.513 606.235 133.453 603.392 133.453 599.782V581.018H140.692V598.982C140.692 601.279 141.144 602.92 142.046 603.904C142.948 604.875 144.281 605.36 146.045 605.36C147.303 605.36 148.321 605.142 149.101 604.704C149.88 604.253 150.454 603.556 150.823 602.612C151.192 601.655 151.377 600.432 151.377 598.941V581.018H158.596Z" fill="#F8F8F1"/>
<path d="M183.8 611L181.975 604.622H171.639L169.793 611H161.918L172.11 580.895H181.4L191.654 611H183.8ZM180.375 598.634L178.652 592.687C178.516 592.181 178.324 591.497 178.078 590.636C177.832 589.774 177.586 588.893 177.34 587.99C177.107 587.074 176.923 586.309 176.786 585.693C176.663 586.309 176.485 587.074 176.253 587.99C176.021 588.906 175.788 589.795 175.556 590.656C175.323 591.518 175.139 592.194 175.002 592.687L173.279 598.634H180.375ZM182.2 573.614C182.2 574.667 181.92 575.556 181.359 576.28C180.799 576.991 179.951 577.497 178.816 577.798L178.591 579.008H174.694L174.161 576.178C175.132 576.041 175.788 575.815 176.13 575.501C176.472 575.173 176.643 574.756 176.643 574.25C176.643 573.826 176.499 573.498 176.212 573.266C175.938 573.033 175.576 572.917 175.125 572.917C174.592 572.917 174.113 572.965 173.689 573.061C173.266 573.143 172.801 573.272 172.295 573.45V569.636C172.732 569.472 173.334 569.342 174.1 569.246C174.879 569.137 175.631 569.082 176.355 569.082C178.324 569.082 179.787 569.485 180.744 570.292C181.715 571.099 182.2 572.206 182.2 573.614Z" fill="#F8F8F1"/>
<path d="M222.744 611H213.393L201.396 589.098H201.211C201.266 589.891 201.313 590.752 201.354 591.682C201.409 592.611 201.457 593.548 201.498 594.491C201.539 595.435 201.573 596.33 201.601 597.178V611H195.161V581.018H204.472L216.428 602.653H216.571C216.53 601.86 216.489 601.02 216.448 600.131C216.407 599.242 216.366 598.347 216.325 597.444C216.298 596.542 216.277 595.688 216.264 594.881V581.018H222.744V611Z" fill="#F8F8F1"/>
<path d="M240.688 611V581.018H247.928V605.094H259.781V611H240.688Z" fill="#F8F8F1"/>
<path d="M274.834 592.748L280.535 581.018H288.349L278.443 599.311V611H271.204V599.536L261.299 581.018H269.153L274.834 592.748ZM283.857 571.912V572.343C283.406 572.726 282.825 573.204 282.114 573.778C281.417 574.339 280.672 574.927 279.879 575.542C279.086 576.144 278.307 576.718 277.541 577.265C276.789 577.812 276.14 578.27 275.593 578.639H270.835V578.064C271.3 577.545 271.847 576.93 272.476 576.219C273.118 575.494 273.754 574.756 274.383 574.004C275.012 573.238 275.538 572.541 275.962 571.912H283.857Z" fill="#F8F8F1"/>
<path d="M312.691 581.018C315.877 581.018 318.604 581.571 320.874 582.679C323.157 583.786 324.907 585.42 326.124 587.58C327.341 589.74 327.949 592.393 327.949 595.537C327.949 598.969 327.3 601.833 326.001 604.13C324.716 606.413 322.87 608.129 320.464 609.277C318.058 610.426 315.2 611 311.892 611H302.786V599.105H300.079V593.22H302.786V581.018H312.691ZM312.876 586.883H310.025V593.22H314.619V599.105H310.025V605.053H312.261C315.022 605.053 317.073 604.28 318.413 602.735C319.767 601.19 320.443 598.866 320.443 595.763C320.443 593.753 320.156 592.092 319.582 590.779C319.008 589.467 318.16 588.489 317.039 587.847C315.918 587.204 314.53 586.883 312.876 586.883Z" fill="#F8F8F1"/>
<path d="M352.128 611L350.303 604.622H339.967L338.121 611H330.246L340.438 580.895H349.729L359.982 611H352.128ZM348.703 598.634L346.98 592.687C346.844 592.181 346.652 591.497 346.406 590.636C346.16 589.774 345.914 588.893 345.668 587.99C345.436 587.074 345.251 586.309 345.114 585.693C344.991 586.309 344.813 587.074 344.581 587.99C344.349 588.906 344.116 589.795 343.884 590.656C343.651 591.518 343.467 592.194 343.33 592.687L341.607 598.634H348.703ZM353.42 571.358C353.324 572.794 352.928 574.059 352.23 575.152C351.547 576.246 350.604 577.101 349.4 577.716C348.197 578.331 346.782 578.639 345.155 578.639C342.626 578.639 340.671 577.982 339.29 576.67C337.909 575.357 337.164 573.587 337.055 571.358H340.972C341.108 572.138 341.354 572.719 341.71 573.102C342.079 573.471 342.551 573.71 343.125 573.819C343.713 573.929 344.396 573.983 345.176 573.983C345.805 573.983 346.413 573.922 347.001 573.799C347.603 573.662 348.115 573.402 348.539 573.02C348.963 572.637 349.243 572.083 349.38 571.358H353.42Z" fill="#F8F8F1"/>
<path d="M391.072 611H381.721L369.724 589.098H369.539C369.594 589.891 369.642 590.752 369.683 591.682C369.737 592.611 369.785 593.548 369.826 594.491C369.867 595.435 369.901 596.33 369.929 597.178V611H363.489V581.018H372.8L384.756 602.653H384.899C384.858 601.86 384.817 601.02 384.776 600.131C384.735 599.242 384.694 598.347 384.653 597.444C384.626 596.542 384.605 595.688 384.592 594.881V581.018H391.072V611Z" fill="#F8F8F1"/>
<path d="M409.816 593.794H422.244V609.646C420.686 610.18 418.983 610.61 417.138 610.938C415.292 611.253 413.282 611.41 411.108 611.41C408.183 611.41 405.653 610.836 403.521 609.688C401.401 608.539 399.768 606.816 398.619 604.52C397.471 602.223 396.896 599.365 396.896 595.947C396.896 592.803 397.498 590.082 398.701 587.785C399.904 585.488 401.675 583.718 404.013 582.474C406.351 581.216 409.215 580.587 412.605 580.587C414.328 580.587 415.996 580.765 417.609 581.12C419.223 581.462 420.658 581.906 421.916 582.453L419.578 588.175C418.58 587.669 417.493 587.272 416.317 586.985C415.155 586.698 413.918 586.555 412.605 586.555C410.787 586.555 409.263 586.972 408.032 587.806C406.815 588.626 405.893 589.754 405.264 591.189C404.648 592.625 404.341 594.266 404.341 596.111C404.341 598.012 404.607 599.659 405.141 601.054C405.674 602.448 406.48 603.528 407.561 604.294C408.641 605.046 410.008 605.422 411.662 605.422C412.346 605.422 413.016 605.388 413.672 605.319C414.328 605.237 414.882 605.148 415.333 605.053V599.577H409.816V593.794Z" fill="#F8F8F1"/>
<path d="M464.654 611H456.472L449.581 598.941L447.038 600.623V611H439.778V581.018H447.038V594.389C447.421 593.76 447.824 593.138 448.248 592.522C448.672 591.894 449.096 591.285 449.52 590.697L456.738 581.018H464.695L454.729 594.368L464.654 611Z" fill="#F8F8F1"/>
<path d="M468.161 611V581.018H475.421V611H468.161Z" fill="#F8F8F1"/>
<path d="M499.969 611H482.435V581.018H499.969V586.862H489.674V592.522H499.23V598.367H489.674V605.073H499.969V611ZM494.842 572.158C495.266 572.787 495.73 573.457 496.236 574.168C496.742 574.879 497.255 575.569 497.774 576.239C498.308 576.909 498.8 577.511 499.251 578.044V578.618H495.498C494.801 578.153 494.083 577.634 493.345 577.06C492.606 576.485 491.882 575.87 491.171 575.214C490.433 575.87 489.694 576.485 488.956 577.06C488.231 577.634 487.527 578.153 486.844 578.618H483.091V578.044C483.556 577.511 484.048 576.909 484.567 576.239C485.087 575.569 485.6 574.879 486.105 574.168C486.611 573.457 487.076 572.787 487.5 572.158H494.842ZM499.251 567.482C500.536 567.482 501.575 567.735 502.368 568.241C503.175 568.733 503.578 569.547 503.578 570.682C503.578 571.461 503.359 572.097 502.922 572.589C502.484 573.081 501.849 573.409 501.015 573.573L500.892 574.701H498L497.774 572.404C498.786 572.377 499.449 572.247 499.764 572.015C500.092 571.769 500.256 571.516 500.256 571.256C500.256 571.023 500.153 570.805 499.948 570.6C499.743 570.381 499.347 570.271 498.759 570.271C498.458 570.271 498.171 570.299 497.897 570.354C497.624 570.408 497.419 570.456 497.282 570.497V567.646C497.419 567.605 497.665 567.571 498.021 567.544C498.376 567.503 498.786 567.482 499.251 567.482Z" fill="#F8F8F1"/>
<path d="M518.61 611L511.945 588.441H511.761C511.802 589.002 511.85 589.802 511.904 590.841C511.973 591.88 512.034 592.994 512.089 594.184C512.144 595.373 512.171 596.48 512.171 597.506V611H505.731V581.018H515.452L522.138 603.125H522.281L529.11 581.018H538.831V611H532.146V597.321C532.146 596.378 532.159 595.332 532.187 594.184C532.228 593.021 532.275 591.921 532.33 590.882C532.385 589.843 532.426 589.043 532.453 588.482H532.269L525.378 611H518.61Z" fill="#F8F8F1"/>
</svg>
