<svg width="403" height="50" viewBox="0 0 403 50" fill="none" xmlns="http://www.w3.org/2000/svg">
<path fill-rule="evenodd" clip-rule="evenodd" d="M41.4477 0C30.3942 0 23.4876 5.45484 20.723 16.3645C24.8683 10.9097 29.7039 8.86452 35.2298 10.2274C38.3826 11.0048 40.6371 13.2629 43.1304 15.7629C47.1945 19.8339 51.8985 24.5452 62.1707 24.5452C73.2225 24.5452 80.1307 19.0903 82.8937 8.18226C78.7501 13.6371 73.9145 15.6823 68.3885 14.3177C65.2341 13.5403 62.9796 11.2823 60.4863 8.78387C56.4222 4.70968 51.7198 0 41.4477 0ZM20.723 24.5452C9.67117 24.5452 2.76296 30 0 40.9097C4.14525 35.4548 8.98084 33.4097 14.5051 34.7726C17.6596 35.55 19.9141 37.8081 22.4074 40.3081C26.4715 44.379 31.1739 49.0903 41.4477 49.0903C52.4995 49.0903 59.4077 43.6371 62.1707 32.7274C58.0254 38.1823 53.1898 40.2274 47.6639 38.8645C44.5111 38.0855 42.2566 35.8274 39.7632 33.329C35.6992 29.2581 30.9952 24.5452 20.723 24.5452Z" fill="#38BDF8"/>
<path fill-rule="evenodd" clip-rule="evenodd" d="M124.335 20.6855H117.102V34.5033C117.102 38.1888 119.551 38.1307 124.335 37.9V43.4855C114.651 44.6371 110.801 41.9888 110.801 34.5033V20.6855H105.434V14.6968H110.801V6.96456L117.102 5.12101V14.6968H124.335V20.6855ZM151.906 14.6968H158.205V43.4855H151.906V39.3404C149.689 42.3904 146.247 44.2339 141.697 44.2339C133.764 44.2339 127.173 37.6129 127.173 29.0904C127.173 20.5129 133.764 13.9484 141.697 13.9484C146.247 13.9484 149.689 15.7904 151.906 18.7855V14.6968ZM142.69 38.3033C147.939 38.3033 151.906 34.4452 151.906 29.0904C151.906 23.7355 147.939 19.8791 142.69 19.8791C137.44 19.8791 133.473 23.7371 133.473 29.0904C133.473 34.4452 137.44 38.3033 142.69 38.3033ZM168.705 10.3791C166.489 10.3791 164.681 8.53714 164.681 6.4065C164.686 5.35057 165.113 4.33968 165.867 3.59514C166.621 2.8506 167.641 2.43305 168.705 2.43392C169.768 2.43263 170.789 2.84998 171.544 3.59457C172.298 4.33916 172.725 5.35029 172.73 6.4065C172.73 8.53553 170.922 10.3791 168.705 10.3791ZM165.555 43.4855V14.6968H171.856V43.4855H165.555ZM179.147 43.4855V1.45166H185.446V43.4839H179.147V43.4855ZM226.339 14.6968H232.989L223.831 43.4855H217.647L211.58 24.0823L205.455 43.4855H199.273L190.113 14.6968H196.763L202.422 34.5597L208.547 14.6968H214.556L220.621 34.5597L226.339 14.6968ZM240.805 10.3791C238.588 10.3791 236.78 8.53714 236.78 6.4065C236.785 5.35029 237.211 4.33916 237.966 3.59457C238.72 2.84998 239.741 2.43263 240.805 2.43392C241.868 2.43263 242.889 2.84998 243.644 3.59457C244.398 4.33916 244.825 5.35029 244.83 6.4065C244.83 8.53553 243.022 10.3791 240.805 10.3791ZM237.655 43.4855V14.6968H243.954V43.4855H237.655ZM266.588 13.9484C273.121 13.9484 277.787 18.3242 277.787 25.8097V43.4839H271.488V26.442C271.488 22.0662 268.922 19.7646 264.955 19.7646C260.813 19.7646 257.547 22.1823 257.547 28.0549V43.4855H251.246V14.6968H257.547V18.3823C259.471 15.3888 262.621 13.9484 266.588 13.9484ZM307.653 3.18231H313.954V43.4839H307.653V39.3388C305.438 42.3904 301.996 44.2323 297.446 44.2323C289.513 44.2323 282.922 37.6113 282.922 29.0888C282.922 20.5113 289.513 13.9468 297.446 13.9468C301.996 13.9468 305.438 15.7888 307.653 18.7839V3.18231ZM298.437 38.3033C303.687 38.3033 307.653 34.4452 307.653 29.0904C307.653 23.7355 303.687 19.8791 298.437 19.8791C293.187 19.8791 289.221 23.7371 289.221 29.0904C289.221 34.4452 293.187 38.3033 298.437 38.3033ZM335.07 44.2339C326.262 44.2339 319.67 37.6129 319.67 29.0904C319.67 20.5129 326.262 13.9484 335.07 13.9484C340.786 13.9484 345.745 16.8839 348.078 21.3759L342.653 24.4855C341.369 21.7791 338.512 20.0517 335.012 20.0517C329.879 20.0517 325.971 23.9097 325.971 29.0904C325.971 34.2726 329.879 38.1307 335.012 38.1307C338.512 38.1307 341.369 36.3452 342.77 33.6968L348.195 36.7484C345.745 41.2968 340.786 44.2339 335.07 44.2339ZM358.577 22.642C358.577 27.8823 374.27 24.7146 374.27 35.3678C374.27 41.1259 369.194 44.2339 362.895 44.2339C357.062 44.2339 352.861 41.642 350.995 37.4968L356.42 34.3888C357.353 36.9791 359.687 38.5339 362.895 38.5339C365.695 38.5339 367.852 37.6129 367.852 35.3081C367.852 30.1855 352.161 33.0646 352.161 22.7581C352.161 17.3452 356.886 13.9484 362.836 13.9484C367.62 13.9484 371.587 16.1371 373.628 19.9371L368.32 22.8726C367.269 20.6275 365.227 19.5904 362.836 19.5904C360.561 19.5904 358.577 20.5694 358.577 22.642ZM385.47 22.642C385.47 27.8823 401.16 24.7146 401.16 35.3678C401.16 41.1259 396.086 44.2339 389.785 44.2339C383.952 44.2339 379.754 41.642 377.886 37.4968L383.311 34.3888C384.245 36.9791 386.577 38.5339 389.785 38.5339C392.586 38.5339 394.744 37.6129 394.744 35.3081C394.744 30.1855 379.053 33.0646 379.053 22.7581C379.053 17.3452 383.777 13.9484 389.729 13.9484C394.51 13.9484 398.477 16.1371 400.519 19.9371L395.211 22.8726C394.161 20.6275 392.12 19.5904 389.729 19.5904C387.453 19.5904 385.47 20.5694 385.47 22.642Z" fill="black"/>
</svg>
