<svg width="73" height="70" viewBox="0 0 73 70" fill="none" xmlns="http://www.w3.org/2000/svg">
<path fill-rule="evenodd" clip-rule="evenodd" d="M2.65483 0H68.1407C69.6069 0 70.7956 1.17525 70.7956 2.625V67.375C70.7956 68.8248 69.6069 70 68.1407 70H2.65483C1.18861 70 0 68.8248 0 67.375V2.625C0 1.17525 1.18861 0 2.65483 0ZM39.3548 37.2411V31.5H14.1591V37.2411H23.1544V62.8035H30.3154V37.2411H39.3548ZM42.2097 62.1285C43.3645 62.7106 44.7303 63.1473 46.3069 63.4383C47.8838 63.7293 49.5455 63.875 51.2925 63.875C52.9951 63.875 54.6124 63.7148 56.1448 63.3947C57.677 63.0746 59.0205 62.5469 60.1752 61.8119C61.33 61.0769 62.2443 60.1165 62.9179 58.9303C63.5915 57.7441 63.9283 56.2778 63.9283 54.5313C63.9283 53.2652 63.7358 52.1557 63.3508 51.2023C62.9661 50.249 62.4109 49.4012 61.6853 48.6589C60.96 47.9166 60.0901 47.2508 59.076 46.6615C58.0618 46.0721 56.9183 45.5153 55.6451 44.9914C54.7123 44.6129 53.8758 44.2454 53.1357 43.8889C52.3953 43.5325 51.7661 43.1685 51.2481 42.7975C50.7298 42.4262 50.3303 42.0334 50.0489 41.6185C49.7676 41.2039 49.627 40.7343 49.627 40.2104C49.627 39.7301 49.7528 39.2972 50.0045 38.9117C50.2562 38.5258 50.6113 38.1947 51.0704 37.9182C51.5294 37.6417 52.0918 37.4271 52.7582 37.2742C53.4243 37.1215 54.1646 37.0451 54.9788 37.0451C55.5711 37.0451 56.1965 37.0887 56.8553 37.1759C57.5142 37.2634 58.1767 37.398 58.8428 37.5798C59.5091 37.7618 60.1569 37.9909 60.7861 38.2677C61.4153 38.5442 61.9963 38.8643 62.5294 39.228V32.7008C61.4484 32.2932 60.2678 31.9911 58.9871 31.7948C57.7066 31.5983 56.2372 31.5 54.579 31.5C52.8915 31.5 51.2925 31.6782 49.7824 32.035C48.2723 32.3914 46.9436 32.9482 45.7962 33.705C44.6487 34.4618 43.7419 35.4259 43.0758 36.5973C42.4095 37.769 42.0765 39.1698 42.0765 40.7998C42.0765 42.8812 42.6871 44.6568 43.9086 46.1265C45.1301 47.5965 46.9843 48.8409 49.4714 49.8597C50.4487 50.2527 51.359 50.6383 52.203 51.0168C53.0468 51.3951 53.7759 51.7882 54.3903 52.1955C55.0047 52.6031 55.4895 53.0468 55.8449 53.5271C56.2003 54.0074 56.378 54.5532 56.378 55.1646C56.378 55.6158 56.2668 56.0342 56.0447 56.4197C55.8226 56.8055 55.4858 57.1402 55.0343 57.424C54.5828 57.7077 54.0203 57.9299 53.3467 58.0898C52.6731 58.25 51.8845 58.3299 50.9815 58.3299C49.4418 58.3299 47.9169 58.0645 46.4068 57.5333C44.8969 57.0021 43.4977 56.2052 42.2097 55.1428V62.1285Z" fill="black"/>
</svg>
